<?xml version="1.0" encoding="utf-8"?>
<!-- Generator: Adobe Illustrator 23.0.3, SVG Export Plug-In . SVG Version: 6.00 Build 0)  -->
<svg version="1.1" id="Layer_1" xmlns="http://www.w3.org/2000/svg" xmlns:xlink="http://www.w3.org/1999/xlink" x="0px" y="0px"
	 viewBox="0 0 58 58" style="enable-background:new 0 0 58 58;" xml:space="preserve">
<style type="text/css">
	.st0{fill:#0080C5;}
</style>
<title>ST</title>
<g>
	<path class="st0" d="M4.8,8.4L14.6,7l0,9.9l-9.7,0.1L4.8,8.4z M14.6,18l0,9.9l-9.7-1.4l0-8.5L14.6,18z M15.7,6.8l12.9-2v11.9
		l-12.9,0.1L15.7,6.8z M28.6,18.1l0,11.9L15.7,28l0-10L28.6,18.1z"/>
	<path class="st0" d="M52.6,46.8c-0.4,1-1,1.9-1.6,2.8c-0.8,1.2-1.5,2-2,2.4c-0.8,0.7-1.7,1.1-2.6,1.1c-0.7,0-1.5-0.2-2.4-0.6
		c-0.9-0.4-1.8-0.6-2.6-0.6c-0.8,0-1.7,0.2-2.6,0.6c-0.9,0.4-1.7,0.6-2.3,0.6c-0.9,0-1.8-0.4-2.6-1.2c-0.6-0.5-1.3-1.3-2.1-2.5
		c-0.9-1.3-1.6-2.7-2.2-4.4c-0.6-1.8-0.9-3.6-0.9-5.3c0-1.9,0.4-3.6,1.3-5c0.7-1.1,1.5-2,2.6-2.7c1.1-0.7,2.3-1,3.6-1
		c0.7,0,1.6,0.2,2.8,0.6c1.1,0.4,1.9,0.6,2.2,0.6c0.2,0,1.1-0.3,2.4-0.8c1.3-0.5,2.4-0.7,3.3-0.6c2.4,0.2,4.3,1.2,5.5,2.9
		c-2.2,1.3-3.3,3.2-3.2,5.6c0,1.9,0.7,3.4,2,4.6c0.6,0.6,1.3,1,2,1.3C53,45.9,52.8,46.3,52.6,46.8L52.6,46.8z M47,24.7
		c0,1.5-0.5,2.8-1.6,4.1c-1.3,1.5-2.8,2.4-4.5,2.2c0-0.2,0-0.4,0-0.5c0-1.4,0.6-2.9,1.7-4.1c0.5-0.6,1.2-1.1,2-1.5
		c0.8-0.4,1.6-0.6,2.3-0.7C47,24.4,47,24.6,47,24.7L47,24.7z"/>
</g>
</svg>
